# xmcd
#
# Track frame offsets:
#  150
#  32756
#  52291
#  72689
#  90734
#  112774
#  126799
#  145461
#  179002
#  195759
#  212843
#  234971
#  250529
#
# Disc length: 3614 seconds
#
# Revision: 0
# Processed by: cddbd v1.5.1PL0 Copyright (c) Steve Scherf et al.
# Submitted via: Collectorz.com Music Collector 6.9
#
DISCID=bb0e1c0d
DTITLE=Monster Mike Welch - Cryin' Hey! Monster Mike Welch Plays The Blues
DYEAR=2005
DGENRE=Blues
TTITLE0=All The Love In The World
TTITLE1=Cryin' Hey!
TTITLE2=A Thrill To Be Alive
TTITLE3=Joaquim Riley
TTITLE4=My Father's Son
TTITLE5=They Call Me Monster Mike
TTITLE6=Everybody
TTITLE7=One Of Those Days
TTITLE8=This High, High Cost Of Leaving
TTITLE9=Searching For An Angel
TTITLE10=Give Me Time
TTITLE11=Just Like A Fool
TTITLE12=My Daily Wish
EXTD=
EXTT0=
EXTT1=
EXTT2=
EXTT3=
EXTT4=
EXTT5=
EXTT6=
EXTT7=
EXTT8=
EXTT9=
EXTT10=
EXTT11=
EXTT12=
PLAYORDER=
